<!-- non blocking human task -->
<svg viewBox="4,0,24,24" xmlns="http://www.w3.org/2000/svg">
    <g style="fill:none;stroke:black;stroke-width:1">
        <path d="M8.5,11 A10,10 1 0,0 8.5,22" />
        <path d="M8.5,11.5 A20,20 0 0,0 11,12.5" />
        <path d="M8.5,21.5 A20,20 1 0,0 11,20.5" />
        <path d="M11,12.5 C30,1 7,18.5 25,12" />
        <path d="M11,20.5 C26,26 27,14 25,12" />
        <!-- fingers -->
        <g style="stroke-width:0.7">
            <path d="M19,15.5 A10,10 0 0,0 25.5,13" />
            <path d="M19,17.8 A10,10 0 0,0 26,14.5" />
            <path d="M19,20 A10,10 0 0,0 25.5,16.8" />
        </g>
    </g>
</svg>