<!-- timer event -->
<svg viewBox="0,0,32,32" xmlns="http://www.w3.org/2000/svg">
    <g style="fill:none;stroke:black;stroke-width:1">
        <circle cx="16" cy="16" r="15" />
        <circle cx="16" cy="16" r="12.5" />
        <circle cx="16" cy="16" r="10" />
        <!-- 00:00 -->
        <line x1="16" x2="16" y1="6" y2="9" style="stroke-width:1.5" />
        <!-- 00:05 -->
        <line x1="21" x2="19.5" y1="7.3" y2="10" />
        <!-- 00:10 -->
        <line x1="24.7" x2="22.4" y1="11" y2="12.35" />
        <!-- 00:15 -->
        <line x1="26" x2="23" y1="16" y2="16" style="stroke-width:1.5" />
        <!-- 00:20 -->
        <line x1="24.7" x2="22" y1="21" y2="19.4" />
        <!-- 00:25 -->
        <line x1="21" x2="19.5" y1="24.7" y2="22" />
        <!-- 00:30 -->
        <line x1="16" x2="16" y1="26" y2="23" style="stroke-width:1.5" />
        <!-- 00:35 -->
        <line x1="11" x2="12.55" y1="24.7" y2="22" />
        <!-- 00:40 -->
        <line x1="7.3" x2="10" y1="21" y2="19.4" />
        <!-- 00:45 -->
        <line x1="6" x2="9" y1="16" y2="16" style="stroke-width:1.5" />
        <!-- 00:50 -->
        <line x1="7.3" x2="10" y1="11" y2="12.35" />
        <!-- 00:55 -->
        <line x1="11" x2="12.55" y1="7.3" y2="10" />

        <!-- hour hand -->
        <line x1="15.5" x2="19" y1="16" y2="16" />
        <!-- minute hand -->
        <line x1="16" x2="16" y1="16" y2="11" />
    </g>
</svg>
